# xmcd
# 
# Track frame offsets:
#     150
#     22312
#     39043
#     65190
#     87008
#     105415
#     123447
#     140354
#     161800
#     178830
#     199215
#     218092
#     232969
#     253249
# 
# Disc length: 3615
# 
# Revision: 11
# Processed by: cddbd v1.5.2PL0 Copyright (c) Steve Scherf et al.
# Submitted via: fre:ac v1.0.31
# 
DISCID=c70e1d0e
DTITLE=Adele - 25
DYEAR=2015
DGENRE=Soul
TTITLE0=Hello
TTITLE1=Send My Love (To Your New Lover)
TTITLE2=I Miss You
TTITLE3=When We Were Young
TTITLE4=Remedy
TTITLE5=Water Under The Bridge
TTITLE6=River Lea
TTITLE7=Love In The Dark
TTITLE8=Million Years Ago
TTITLE9=All I Ask
TTITLE10=Sweetest Devotion
TTITLE11=Can't Let Go (Bonus Track)
TTITLE12=Lay Me Down (Bonus Track)
TTITLE13=Why Do You Love Me (Bonus Track)
EXTD=
EXTT0=
EXTT1=
EXTT2=
EXTT3=
EXTT4=
EXTT5=
EXTT6=
EXTT7=
EXTT8=
EXTT9=
EXTT10=
EXTT11=
EXTT12=
EXTT13=
PLAYORDER=
